<svg data-name="024_HOLIDAYS" viewBox="0 0 24 24" xmlns="http://www.w3.org/2000/svg"><path d="M13.31 23h-2.62a3 3 0 0 1-2.95-2.51L7 16.16A1 1 0 0 1 8 15h8a1 1 0 0 1 1 1.16l-.73 4.33A3 3 0 0 1 13.31 23Zm-4.13-6 .53 3.16a1 1 0 0 0 1 .84h2.62a1 1 0 0 0 1-.84l.49-3.16Z" fill="#ffffff" class="fill-333333"></path><path d="M17 17H7a1 1 0 0 1 0-2h10a1 1 0 0 1 0 2ZM10.19 14a3 3 0 0 1-3-3 2.3 2.3 0 0 1 0-.37 3 3 0 0 1 0-5.51 2.3 2.3 0 0 1 0-.37A3 3 0 0 1 8.7 2.17a3 3 0 0 1 3.3.21 3 3 0 0 1 3.3-.21 3 3 0 0 1 1.49 2.59 2.3 2.3 0 0 1 0 .37 3 3 0 0 1 0 5.51 2.3 2.3 0 0 1 0 .37 3 3 0 0 1-1.1 2.32 1 1 0 1 1-1.26-1.55 1 1 0 0 0 .36-.77 1 1 0 0 0-.13-.49 1.08 1.08 0 0 1-.09-1.13 1 1 0 0 1 .94-.53v.89l.08-.87a1 1 0 0 0 0-2h-.1a1 1 0 0 1-.91-1.58l.79.43-.71-.52a1 1 0 0 0 .11-.46 1 1 0 0 0-.49-.86 1 1 0 0 0-1.28.37.42.42 0 0 1 0 .1 1 1 0 0 1-1.82 0l.76-.47-.94.35a1 1 0 0 0-1.3-.34 1 1 0 0 0-.49.86 1 1 0 0 0 .13.49 1.08 1.08 0 0 1 .09 1.13 1 1 0 0 1-.94.53v-.89l-.08.87a1 1 0 0 0 0 2h.1a1 1 0 0 1 1 .5 1 1 0 0 1-.06 1.09l-.06.08a1 1 0 0 0-.13.49 1 1 0 0 0 1.8.56 1 1 0 0 1 1.66 1.12A3 3 0 0 1 10.19 14Z" fill="#ffffff" class="fill-333333"></path><circle cx="12" cy="8" r="1" fill="#ffffff" class="fill-333333"></circle><path d="M12 17a1 1 0 0 1-1-1v-4a1 1 0 0 1 2 0v4a1 1 0 0 1-1 1Z" fill="#ffffff" class="fill-333333"></path></svg>